# xmcd
#
# Track frame offsets:
#	150
#	6000
#	17050
#	29575
#	36100
#	43100
#	55650
#	72725
#	86825
#	101300
#	110625
#	124075
#
# Disc length: 1906 seconds
#
# Revision: 0
# Processed by: cddbd v1.5.1PL0 Copyright (c) Steve Scherf et al.
# Submitted via: dBpowerAMP V4.0
#
DISCID=9f07700c
DTITLE=Bobby Thompson - Thompson Picks
DYEAR=2004
DGENRE=Bluegrass
TTITLE0=Little Rock Getaway
TTITLE1=Diesel On My Tail
TTITLE2=Banderilla
TTITLE3=Goin' back to Harlan
TTITLE4=Casey Jones
TTITLE5=Classical Gas
TTITLE6=Katy Hill
TTITLE7=Tennessee Green
TTITLE8=John Henry
TTITLE9=Foxfire
TTITLE10=Devil Dance
TTITLE11=Faded Love
EXTD=
EXTT0=
EXTT1=
EXTT2=
EXTT3=
EXTT4=
EXTT5=
EXTT6=
EXTT7=
EXTT8=
EXTT9=
EXTT10=
EXTT11=
PLAYORDER=
